<?xml version="1.0" standalone="no"?>
<!DOCTYPE svg PUBLIC "-//W3C//DTD SVG 20010904//EN"
 "http://www.w3.org/TR/2001/REC-SVG-20010904/DTD/svg10.dtd">
<svg version="1.0" xmlns="http://www.w3.org/2000/svg"
 width="600.000000pt" height="600.000000pt" viewBox="0 0 600.000000 600.000000"
 preserveAspectRatio="xMidYMid meet">
<metadata>
Created by potrace 1.11, written by Peter Selinger 2001-2013
</metadata>
<g transform="translate(0.000000,600.000000) scale(0.100000,-0.100000)"
fill="#000000" stroke="none">
<path d="M720 5544 c-109 -29 -204 -107 -249 -203 l-26 -56 0 -450 c0 -435 1
-451 21 -495 48 -104 162 -190 283 -215 33 -6 142 -10 261 -10 229 2 273 10
366 71 63 42 98 81 132 147 l27 52 2 445 2 445 -28 60 c-47 100 -132 172 -244
207 -50 15 -93 18 -275 17 -158 0 -232 -4 -272 -15z m492 -272 c31 -21 54 -48
71 -83 26 -51 26 -51 27 -340 1 -315 -3 -344 -52 -404 -54 -64 -95 -78 -243
-81 -165 -2 -211 7 -265 53 -79 68 -82 86 -81 423 l1 295 27 54 c56 109 122
131 353 121 109 -5 118 -8 162 -38z"/>
<path d="M2263 5545 c-18 -8 -42 -29 -53 -47 -19 -32 -20 -49 -20 -656 0 -692
-2 -675 65 -706 44 -21 83 -20 122 4 62 38 60 16 62 692 2 668 2 667 -52 703
-34 22 -86 26 -124 10z"/>
<path d="M3365 5542 c-114 -40 -205 -118 -248 -212 -20 -43 -21 -63 -21 -490
l-1 -445 29 -60 c53 -107 155 -184 277 -209 61 -12 427 -14 489 -2 114 22 246
132 285 238 18 49 19 82 19 483 l-1 430 -32 67 c-38 80 -98 138 -191 182 l-65
31 -245 3 c-213 2 -251 0 -295 -16z m486 -259 c52 -33 80 -67 98 -121 14 -41
17 -94 16 -338 -1 -276 -2 -291 -23 -331 -12 -23 -36 -56 -54 -72 -52 -49 -95
-58 -259 -56 -138 1 -148 2 -190 27 -48 29 -69 50 -96 100 -16 29 -18 66 -20
325 -2 311 2 343 46 405 42 60 92 82 196 88 140 8 245 -2 286 -27z"/>
<path d="M4740 5544 c-110 -30 -204 -107 -249 -204 l-26 -55 -3 -429 c-2 -375
-1 -436 13 -481 38 -121 156 -220 300 -253 11 -3 121 -5 245 -5 202 1 231 3
282 21 77 28 140 73 188 134 70 88 71 100 68 590 l-3 433 -27 51 c-37 70 -110
139 -188 177 l-65 32 -240 2 c-190 2 -252 -1 -295 -13z m476 -258 c45 -30 90
-85 103 -126 14 -47 15 -590 1 -640 -13 -48 -63 -106 -113 -133 -38 -19 -56
-21 -197 -21 -176 0 -211 11 -268 80 -50 60 -53 91 -50 414 3 325 4 331 71
393 43 41 71 50 167 56 130 9 252 -1 286 -23z"/>
<path d="M903 3696 c-17 -8 -40 -27 -50 -42 -16 -26 -18 -68 -19 -655 -1 -492
2 -634 12 -658 40 -95 188 -89 226 9 15 39 14 1252 -1 1287 -25 59 -105 87
-168 59z"/>
<path d="M2285 3692 c-64 -40 -60 7 -60 -703 l0 -649 31 -31 c64 -64 173 -41
201 41 8 25 11 211 12 643 1 658 1 657 -53 692 -40 26 -96 29 -131 7z"/>
<path d="M3378 3699 c-97 -23 -214 -120 -258 -215 -23 -49 -23 -53 -25 -478
-2 -460 0 -482 49 -556 55 -82 142 -145 236 -171 51 -13 379 -18 477 -7 130
15 256 106 310 225 l26 56 1 411 c2 419 -2 476 -37 543 -43 82 -126 149 -225
182 -55 19 -84 21 -289 20 -125 -1 -245 -5 -265 -10z m458 -257 c54 -28 92
-70 113 -128 16 -43 18 -82 16 -339 -1 -273 -3 -292 -22 -330 -28 -53 -55 -81
-106 -107 -37 -19 -58 -21 -187 -22 -168 0 -204 9 -260 65 -64 65 -68 87 -66
420 1 288 1 295 24 339 56 105 114 127 328 124 99 -2 129 -6 160 -22z"/>
<path d="M4973 3694 c-71 -35 -67 1 -68 -697 -1 -478 2 -635 11 -657 32 -74
138 -91 198 -31 l31 31 3 638 c3 709 6 684 -63 716 -41 20 -71 20 -112 0z"/>
<path d="M825 1889 c-49 -4 -104 -11 -120 -16 -98 -33 -193 -113 -235 -198
l-25 -50 0 -455 0 -455 25 -50 c46 -95 148 -175 260 -205 51 -14 371 -19 469
-8 130 15 248 96 309 211 l27 52 0 455 0 455 -28 54 c-50 95 -138 164 -248
195 -62 18 -280 25 -434 15z m325 -254 c53 -17 108 -65 134 -117 l26 -52 0
-289 c0 -314 -4 -343 -52 -402 -57 -68 -93 -79 -268 -79 -174 0 -210 10 -265
76 -55 65 -56 76 -56 395 0 290 0 295 24 347 27 59 76 102 136 120 43 12 282
14 321 1z"/>
<path d="M2355 1893 c-11 -1 -74 -4 -140 -5 -110 -3 -125 -6 -187 -35 -89 -42
-151 -101 -190 -180 l-32 -65 -1 -407 c0 -223 3 -428 7 -454 10 -70 46 -133
106 -188 68 -62 147 -99 232 -107 82 -9 369 -7 435 2 118 16 239 106 292 215
l27 56 1 425 c1 311 -2 438 -11 474 -27 104 -110 190 -234 241 -41 17 -238 35
-305 28z m197 -276 c30 -15 63 -39 75 -55 47 -63 51 -98 49 -407 -2 -321 -3
-331 -70 -397 -51 -51 -87 -61 -236 -63 -134 -2 -168 3 -225 32 -40 20 -90 88
-102 138 -5 22 -9 168 -8 325 1 270 3 287 23 326 35 68 98 113 176 126 11 2
75 3 142 2 111 0 127 -3 176 -27z"/>
<path d="M3604 1890 c-11 -4 -33 -22 -47 -40 l-27 -32 0 -426 c-1 -844 -2
-840 14 -871 26 -50 109 -76 159 -50 32 17 67 59 68 83 6 91 3 1237 -2 1258
-18 66 -99 105 -165 78z"/>
<path d="M4985 1886 c-17 -7 -40 -26 -50 -42 -18 -28 -19 -57 -20 -656 -2
-686 -3 -671 57 -708 40 -24 79 -25 123 -4 68 32 66 15 67 707 2 583 0 625
-16 653 -10 17 -27 36 -37 42 -30 19 -92 23 -124 8z"/>
</g>
</svg>
